<svg width="48" height="48" viewBox="0 0 48 48" fill="none" xmlns="http://www.w3.org/2000/svg">
  <!-- Main hexagonal block shape -->
  <path d="M24 4L42 14V34L24 44L6 34V14L24 4Z" stroke="url(#gradient1)" stroke-width="2" fill="none"/>
  
  <!-- Inner connected nodes -->
  <circle cx="24" cy="14" r="3" fill="#22d3ee"/>
  <circle cx="14" cy="24" r="3" fill="#06b6d4"/>
  <circle cx="34" cy="24" r="3" fill="#06b6d4"/>
  <circle cx="24" cy="34" r="3" fill="#22d3ee"/>
  <circle cx="24" cy="24" r="4" fill="#0891b2"/>
  
  <!-- Connection lines -->
  <line x1="24" y1="17" x2="24" y2="20" stroke="#22d3ee" stroke-width="1.5"/>
  <line x1="24" y1="28" x2="24" y2="31" stroke="#22d3ee" stroke-width="1.5"/>
  <line x1="17" y1="24" x2="20" y2="24" stroke="#06b6d4" stroke-width="1.5"/>
  <line x1="28" y1="24" x2="31" y2="24" stroke="#06b6d4" stroke-width="1.5"/>
  
  <!-- Diagonal connections -->
  <line x1="16" y1="16" x2="21" y2="21" stroke="#0e7490" stroke-width="1"/>
  <line x1="32" y1="16" x2="27" y2="21" stroke="#0e7490" stroke-width="1"/>
  <line x1="16" y1="32" x2="21" y2="27" stroke="#0e7490" stroke-width="1"/>
  <line x1="32" y1="32" x2="27" y2="27" stroke="#0e7490" stroke-width="1"/>
  
  <!-- Corner nodes -->
  <circle cx="16" cy="16" r="2" fill="#0e7490"/>
  <circle cx="32" cy="16" r="2" fill="#0e7490"/>
  <circle cx="16" cy="32" r="2" fill="#0e7490"/>
  <circle cx="32" cy="32" r="2" fill="#0e7490"/>
  
  <defs>
    <linearGradient id="gradient1" x1="6" y1="4" x2="42" y2="44" gradientUnits="userSpaceOnUse">
      <stop offset="0%" stop-color="#22d3ee"/>
      <stop offset="100%" stop-color="#0891b2"/>
    </linearGradient>
  </defs>
</svg>
